<mxfile host="app.diagrams.net" modified="2021-04-30T16:33:19.363Z" agent="5.0 (Macintosh; Intel Mac OS X 10_15_7) AppleWebKit/537.36 (KHTML, like Gecko) Chrome/90.0.4430.93 Safari/537.36" etag="x7-aM_TV_lkoXolq0j_a" version="14.4.8" type="github">
  <diagram id="IOe-r8gsMqf0sz3s-HtU" name="Page-1">
    <mxGraphModel dx="1094" dy="530" grid="1" gridSize="10" guides="1" tooltips="1" connect="1" arrows="1" fold="1" page="1" pageScale="1" pageWidth="827" pageHeight="1169" math="0" shadow="0">
      <root>
        <mxCell id="0" />
        <mxCell id="1" parent="0" />
        <mxCell id="koRxX0x4zcdk8Toaq0po-8" value="Conveyors" parent="0" />
        <mxCell id="koRxX0x4zcdk8Toaq0po-11" style="edgeStyle=orthogonalEdgeStyle;rounded=0;orthogonalLoop=1;jettySize=auto;html=1;exitX=1;exitY=0.5;exitDx=0;exitDy=0;entryX=0;entryY=0.5;entryDx=0;entryDy=0;fillColor=#d5e8d4;strokeColor=#82b366;" edge="1" parent="koRxX0x4zcdk8Toaq0po-8" source="koRxX0x4zcdk8Toaq0po-9" target="koRxX0x4zcdk8Toaq0po-10">
          <mxGeometry relative="1" as="geometry" />
        </mxCell>
        <object label="%pos%" placeholders="1" pos="01010" id="koRxX0x4zcdk8Toaq0po-9">
          <mxCell style="rounded=0;whiteSpace=wrap;html=1;" vertex="1" parent="koRxX0x4zcdk8Toaq0po-8">
            <mxGeometry x="60" y="80" width="120" height="60" as="geometry" />
          </mxCell>
        </object>
        <object label="%pos%" placeholders="1" pos="01011" id="koRxX0x4zcdk8Toaq0po-10">
          <mxCell style="rounded=0;whiteSpace=wrap;html=1;" vertex="1" parent="koRxX0x4zcdk8Toaq0po-8">
            <mxGeometry x="240" y="80" width="120" height="60" as="geometry" />
          </mxCell>
        </object>
      </root>
    </mxGraphModel>
  </diagram>
</mxfile>
